<svg width="28" height="17" viewBox="0 0 28 17" fill="none" xmlns="http://www.w3.org/2000/svg">
<path d="M14.3622 8.36364C14.3622 10.0291 14.0465 11.446 13.4151 12.6143C12.7887 13.7827 11.9336 14.6751 10.8498 15.2915C9.77095 15.9031 8.55788 16.2088 7.21058 16.2088C5.85334 16.2088 4.6353 15.9006 3.55646 15.2841C2.47763 14.6676 1.625 13.7752 0.99858 12.6069C0.372159 11.4386 0.0589489 10.0241 0.0589489 8.36364C0.0589489 6.69815 0.372159 5.28125 0.99858 4.11293C1.625 2.9446 2.47763 2.05469 3.55646 1.44318C4.6353 0.826704 5.85334 0.518465 7.21058 0.518465C8.55788 0.518465 9.77095 0.826704 10.8498 1.44318C11.9336 2.05469 12.7887 2.9446 13.4151 4.11293C14.0465 5.28125 14.3622 6.69815 14.3622 8.36364ZM11.0884 8.36364C11.0884 7.2848 10.9268 6.375 10.6037 5.63423C10.2855 4.89347 9.83558 4.33168 9.25391 3.94886C8.67223 3.56605 7.99112 3.37465 7.21058 3.37465C6.43004 3.37465 5.74893 3.56605 5.16726 3.94886C4.58558 4.33168 4.13317 4.89347 3.81001 5.63423C3.49183 6.375 3.33274 7.2848 3.33274 8.36364C3.33274 9.44247 3.49183 10.3523 3.81001 11.093C4.13317 11.8338 4.58558 12.3956 5.16726 12.7784C5.74893 13.1612 6.43004 13.3526 7.21058 13.3526C7.99112 13.3526 8.67223 13.1612 9.25391 12.7784C9.83558 12.3956 10.2855 11.8338 10.6037 11.093C10.9268 10.3523 11.0884 9.44247 11.0884 8.36364ZM19.5731 12.7038L19.5805 8.89311H20.0429L23.7119 4.54545H27.3586L22.4292 10.3026H21.676L19.5731 12.7038ZM16.6945 16V0.727272H19.8714V16H16.6945ZM23.8536 16L20.4829 11.011L22.6008 8.76633L27.5748 16H23.8536Z" fill="white"/>
</svg>
