<svg width="114" height="27" viewBox="0 0 114 27" fill="none" xmlns="http://www.w3.org/2000/svg">
<rect x="0.848633" width="113" height="27" rx="8" fill="#0038FF"/>
<path d="M25.8941 7.36364H27.3032V15.0682C27.3032 15.8636 27.1157 16.5739 26.7407 17.1989C26.3695 17.8201 25.8448 18.3106 25.1668 18.6705C24.4888 19.0265 23.6933 19.2045 22.7805 19.2045C21.8676 19.2045 21.0721 19.0265 20.3941 18.6705C19.7161 18.3106 19.1895 17.8201 18.8145 17.1989C18.4433 16.5739 18.2577 15.8636 18.2577 15.0682V7.36364H19.6668V14.9545C19.6668 15.5227 19.7918 16.0284 20.0418 16.4716C20.2918 16.911 20.6479 17.2576 21.11 17.5114C21.5759 17.7614 22.1327 17.8864 22.7805 17.8864C23.4282 17.8864 23.985 17.7614 24.4509 17.5114C24.9168 17.2576 25.2729 16.911 25.5191 16.4716C25.7691 16.0284 25.8941 15.5227 25.8941 14.9545V7.36364ZM36.1171 12.2273L34.9126 12.5682C34.8368 12.3674 34.7251 12.1723 34.5773 11.983C34.4334 11.7898 34.2364 11.6307 33.9864 11.5057C33.7364 11.3807 33.4163 11.3182 33.0262 11.3182C32.4921 11.3182 32.047 11.4413 31.691 11.6875C31.3387 11.9299 31.1626 12.2386 31.1626 12.6136C31.1626 12.947 31.2838 13.2102 31.5262 13.4034C31.7686 13.5966 32.1474 13.7576 32.6626 13.8864L33.958 14.2045C34.7383 14.3939 35.3198 14.6837 35.7023 15.0739C36.0849 15.4602 36.2762 15.9583 36.2762 16.5682C36.2762 17.0682 36.1323 17.5152 35.8444 17.9091C35.5603 18.303 35.1626 18.6136 34.6512 18.8409C34.1398 19.0682 33.5451 19.1818 32.8671 19.1818C31.9769 19.1818 31.2402 18.9886 30.6569 18.6023C30.0735 18.2159 29.7042 17.6515 29.5489 16.9091L30.8216 16.5909C30.9429 17.0606 31.172 17.4129 31.5091 17.6477C31.8501 17.8826 32.2951 18 32.8444 18C33.4694 18 33.9656 17.8674 34.333 17.6023C34.7042 17.3333 34.8898 17.0114 34.8898 16.6364C34.8898 16.3333 34.7838 16.0795 34.5716 15.875C34.3595 15.6667 34.0338 15.5114 33.5944 15.4091L32.1398 15.0682C31.3406 14.8788 30.7535 14.5852 30.3785 14.1875C30.0073 13.786 29.8216 13.2841 29.8216 12.6818C29.8216 12.1894 29.9599 11.7538 30.2364 11.375C30.5167 10.9962 30.8974 10.6989 31.3785 10.483C31.8633 10.267 32.4126 10.1591 33.0262 10.1591C33.8898 10.1591 34.5679 10.3485 35.0603 10.7273C35.5565 11.1061 35.9088 11.6061 36.1171 12.2273ZM41.9537 19.1818C41.1128 19.1818 40.3875 18.9962 39.7776 18.625C39.1715 18.25 38.7037 17.7273 38.3742 17.0568C38.0484 16.3826 37.8856 15.5985 37.8856 14.7045C37.8856 13.8106 38.0484 13.0227 38.3742 12.3409C38.7037 11.6553 39.1621 11.1212 39.7492 10.7386C40.3401 10.3523 41.0295 10.1591 41.8174 10.1591C42.2719 10.1591 42.7208 10.2348 43.164 10.3864C43.6072 10.5379 44.0106 10.7841 44.3742 11.125C44.7378 11.4621 45.0276 11.9091 45.2435 12.4659C45.4594 13.0227 45.5674 13.7083 45.5674 14.5227V15.0909L38.8401 15.0909V13.9318H44.2037C44.2037 13.4394 44.1053 13 43.9083 12.6136C43.7151 12.2273 43.4386 11.9223 43.0787 11.6989C42.7227 11.4754 42.3022 11.3636 41.8174 11.3636C41.2833 11.3636 40.8212 11.4962 40.431 11.7614C40.0447 12.0227 39.7473 12.3636 39.539 12.7841C39.3306 13.2045 39.2265 13.6553 39.2265 14.1364V14.9091C39.2265 15.5682 39.3401 16.1269 39.5674 16.5852C39.7984 17.0398 40.1185 17.3864 40.5276 17.625C40.9367 17.8598 41.4121 17.9773 41.9537 17.9773C42.306 17.9773 42.6242 17.928 42.9083 17.8295C43.1962 17.7273 43.4443 17.5758 43.6526 17.375C43.8609 17.1705 44.0219 16.9167 44.1356 16.6136L45.431 16.9773C45.2947 17.4167 45.0655 17.803 44.7435 18.1364C44.4215 18.4659 44.0238 18.7235 43.5503 18.9091C43.0769 19.0909 42.5447 19.1818 41.9537 19.1818ZM47.6072 19V10.2727H48.9026V11.5909H48.9935C49.1526 11.1591 49.4405 10.8087 49.8572 10.5398C50.2738 10.2708 50.7435 10.1364 51.2662 10.1364C51.3647 10.1364 51.4878 10.1383 51.6356 10.142C51.7833 10.1458 51.895 10.1515 51.9708 10.1591V11.5227C51.9253 11.5114 51.8212 11.4943 51.6583 11.4716C51.4992 11.4451 51.3306 11.4318 51.1526 11.4318C50.7284 11.4318 50.3496 11.5208 50.0162 11.6989C49.6867 11.8731 49.4253 12.1155 49.2322 12.4261C49.0428 12.733 48.9481 13.0833 48.9481 13.4773V19H47.6072ZM64.6057 10.2727C64.5376 9.69697 64.261 9.25 63.7762 8.93182C63.2913 8.61364 62.6966 8.45455 61.9921 8.45455C61.4769 8.45455 61.0262 8.53788 60.6398 8.70455C60.2573 8.87121 59.958 9.10038 59.7421 9.39205C59.53 9.68371 59.4239 10.0152 59.4239 10.3864C59.4239 10.697 59.4978 10.964 59.6455 11.1875C59.797 11.4072 59.9902 11.5909 60.2251 11.7386C60.4599 11.8826 60.7061 12.0019 60.9637 12.0966C61.2213 12.1875 61.458 12.2614 61.6739 12.3182L62.8557 12.6364C63.1588 12.7159 63.4959 12.8258 63.8671 12.9659C64.2421 13.1061 64.6001 13.2973 64.941 13.5398C65.2857 13.7784 65.5698 14.0852 65.7932 14.4602C66.0167 14.8352 66.1285 15.2955 66.1285 15.8409C66.1285 16.4697 65.9637 17.0379 65.6341 17.5455C65.3084 18.053 64.8311 18.4564 64.2023 18.7557C63.5773 19.0549 62.8179 19.2045 61.9239 19.2045C61.0906 19.2045 60.369 19.0701 59.7591 18.8011C59.1531 18.5322 58.6758 18.1572 58.3273 17.6761C57.9826 17.1951 57.7876 16.6364 57.7421 16H59.1966C59.2345 16.4394 59.3823 16.803 59.6398 17.0909C59.9012 17.375 60.2307 17.5871 60.6285 17.7273C61.03 17.8636 61.4618 17.9318 61.9239 17.9318C62.4618 17.9318 62.9448 17.8447 63.3728 17.6705C63.8008 17.4924 64.1398 17.2462 64.3898 16.9318C64.6398 16.6136 64.7648 16.2424 64.7648 15.8182C64.7648 15.4318 64.6569 15.1174 64.441 14.875C64.2251 14.6326 63.941 14.4356 63.5887 14.2841C63.2364 14.1326 62.8557 14 62.4466 13.8864L61.0148 13.4773C60.1057 13.2159 59.386 12.8428 58.8557 12.358C58.3254 11.8731 58.0603 11.2386 58.0603 10.4545C58.0603 9.80303 58.2364 9.23485 58.5887 8.75C58.9448 8.26136 59.422 7.88258 60.0205 7.61364C60.6228 7.34091 61.2951 7.20455 62.0376 7.20455C62.7876 7.20455 63.4542 7.33901 64.0376 7.60795C64.6209 7.87311 65.083 8.23674 65.4239 8.69886C65.7686 9.16098 65.9504 9.68561 65.9694 10.2727H64.6057ZM72.0589 10.2727V11.4091L67.5361 11.4091V10.2727L72.0589 10.2727ZM68.8543 8.18182L70.1952 8.18182V16.5C70.1952 16.8788 70.2501 17.1629 70.36 17.3523C70.4736 17.5379 70.6176 17.6629 70.7918 17.7273C70.9698 17.7879 71.1573 17.8182 71.3543 17.8182C71.502 17.8182 71.6233 17.8106 71.718 17.7955C71.8126 17.7765 71.8884 17.7614 71.9452 17.75L72.218 18.9545C72.127 18.9886 72.0001 19.0227 71.8373 19.0568C71.6744 19.0947 71.468 19.1136 71.218 19.1136C70.8392 19.1136 70.468 19.0322 70.1043 18.8693C69.7445 18.7064 69.4452 18.4583 69.2066 18.125C68.9717 17.7917 68.8543 17.3712 68.8543 16.8636V8.18182ZM77.5276 19.1818C76.7397 19.1818 76.0484 18.9943 75.4537 18.6193C74.8628 18.2443 74.4007 17.7197 74.0674 17.0455C73.7378 16.3712 73.5731 15.5833 73.5731 14.6818C73.5731 13.7727 73.7378 12.9792 74.0674 12.3011C74.4007 11.6231 74.8628 11.0966 75.4537 10.7216C76.0484 10.3466 76.7397 10.1591 77.5276 10.1591C78.3155 10.1591 79.0049 10.3466 79.5958 10.7216C80.1905 11.0966 80.6526 11.6231 80.9822 12.3011C81.3155 12.9792 81.4822 13.7727 81.4822 14.6818C81.4822 15.5833 81.3155 16.3712 80.9822 17.0455C80.6526 17.7197 80.1905 18.2443 79.5958 18.6193C79.0049 18.9943 78.3155 19.1818 77.5276 19.1818ZM77.5276 17.9773C78.1261 17.9773 78.6185 17.8239 79.0049 17.517C79.3912 17.2102 79.6772 16.8068 79.8628 16.3068C80.0484 15.8068 80.1412 15.2652 80.1412 14.6818C80.1412 14.0985 80.0484 13.5549 79.8628 13.0511C79.6772 12.5473 79.3912 12.1402 79.0049 11.8295C78.6185 11.5189 78.1261 11.3636 77.5276 11.3636C76.9291 11.3636 76.4367 11.5189 76.0503 11.8295C75.664 12.1402 75.378 12.5473 75.1924 13.0511C75.0068 13.5549 74.914 14.0985 74.914 14.6818C74.914 15.2652 75.0068 15.8068 75.1924 16.3068C75.378 16.8068 75.664 17.2102 76.0503 17.517C76.4367 17.8239 76.9291 17.9773 77.5276 17.9773ZM83.529 19V10.2727H84.8245V11.5909H84.9154C85.0745 11.1591 85.3624 10.8087 85.779 10.5398C86.1957 10.2708 86.6654 10.1364 87.1881 10.1364C87.2866 10.1364 87.4097 10.1383 87.5574 10.142C87.7052 10.1458 87.8169 10.1515 87.8927 10.1591V11.5227C87.8472 11.5114 87.743 11.4943 87.5802 11.4716C87.4211 11.4451 87.2525 11.4318 87.0745 11.4318C86.6502 11.4318 86.2715 11.5208 85.9381 11.6989C85.6086 11.8731 85.3472 12.1155 85.154 12.4261C84.9646 12.733 84.8699 13.0833 84.8699 13.4773V19H83.529ZM90.6114 22.2727C90.3841 22.2727 90.1815 22.2538 90.0035 22.2159C89.8254 22.1818 89.7023 22.1477 89.6341 22.1136L89.9751 20.9318C90.3008 21.0152 90.5887 21.0455 90.8387 21.0227C91.0887 21 91.3103 20.8883 91.5035 20.6875C91.7004 20.4905 91.8804 20.1705 92.0432 19.7273L92.2932 19.0455L89.066 10.2727H90.5205L92.9296 17.2273H93.0205L95.4296 10.2727H96.8841L93.1796 20.2727C93.0129 20.7235 92.8065 21.0966 92.5603 21.392C92.3141 21.6913 92.0281 21.9129 91.7023 22.0568C91.3804 22.2008 91.0167 22.2727 90.6114 22.2727Z" fill="white"/>
</svg>
